<svg width="119" height="36" viewBox="0 0 119 36" fill="none" xmlns="http://www.w3.org/2000/svg">
<path d="M115.493 0.666626H3.77331C2.14959 0.666626 0.833313 1.97246 0.833313 3.58329V32.7499C0.833313 34.3607 2.14959 35.6666 3.77331 35.6666H115.493C117.117 35.6666 118.433 34.3607 118.433 32.7499V3.58329C118.433 1.97246 117.117 0.666626 115.493 0.666626Z" fill="#151515"/>
<path fill-rule="evenodd" clip-rule="evenodd" d="M24.9357 10.35C27.4288 10.35 29.0223 12.7514 29.0223 12.7514C29.0223 12.7514 26.5919 14.0658 26.5919 16.9183C26.5919 20.3045 29.6465 21.2904 29.6465 21.2904C29.6465 21.2904 27.2358 26.9837 24.527 26.9837C23.0041 26.9837 22.9022 26.1116 20.8785 26.1116C19.1204 26.1116 18.5285 26.9827 17.1898 26.9827C14.6339 26.9827 11.3333 21.4313 11.3333 16.9154C11.3333 12.2264 14.6751 10.348 16.7703 10.348C18.6098 10.348 19.3771 11.4272 20.8569 11.4272C22.1045 11.4272 23.0864 10.348 24.9357 10.348V10.35ZM24.5065 5.56665C24.872 7.86692 22.7777 10.7097 20.2729 10.6173C19.9054 7.69387 22.6053 5.72415 24.5045 5.56957L24.5065 5.56665Z" fill="white"/>
<mask id="mask0_447_94" style="mask-type:luminance" maskUnits="userSpaceOnUse" x="37" y="5" width="71" height="27">
<path d="M37.0846 5.70764H107.233V31.1759H37.0846V5.70861V5.70764Z" fill="white"/>
</mask>
<g mask="url(#mask0_447_94)">
<path fill-rule="evenodd" clip-rule="evenodd" d="M43.5467 22.841L42.5569 19.7727C42.452 19.4615 42.2551 18.7227 41.9669 17.5609H41.9317C41.8141 18.0606 41.6298 18.7985 41.375 19.7746L40.4019 22.8439H43.5477L43.5467 22.841ZM46.9698 27.741H44.9706L43.877 24.2896H40.0736L39.0299 27.741H37.0846L40.8546 15.9897H43.1821L46.9698 27.742V27.741Z" fill="white"/>
</g>
<mask id="mask1_447_94" style="mask-type:luminance" maskUnits="userSpaceOnUse" x="37" y="5" width="71" height="27">
<path d="M37.0846 5.70764H107.233V31.1759H37.0846" fill="white"/>
</mask>
<g mask="url(#mask1_447_94)">
<path fill-rule="evenodd" clip-rule="evenodd" d="M54.7344 23.4691C54.7344 22.6447 54.5501 21.9641 54.1797 21.4294C53.774 20.8723 53.2291 20.5933 52.546 20.5933C52.0835 20.5933 51.664 20.7488 51.2867 21.0551C50.9094 21.3646 50.6492 21.792 50.5488 22.2675C50.49 22.5008 50.4606 22.6894 50.4606 22.8411V24.2547C50.4606 24.8711 50.6468 25.3922 51.0251 25.817C51.4014 26.2409 51.8904 26.4538 52.4921 26.4538C53.1977 26.4538 53.7485 26.1797 54.1425 25.6352C54.5364 25.0879 54.7334 24.3674 54.7334 23.472M56.6444 23.404C56.6444 24.8448 56.2553 25.9833 55.4753 26.8204C54.7765 27.5631 53.9073 27.9355 52.8724 27.9355C51.7552 27.9355 50.9516 27.5349 50.4616 26.7329V31.1798H48.5898V22.0565C48.5898 21.1494 48.5663 20.2209 48.5212 19.2691H50.1705L50.2754 20.6147H50.3107C50.9379 19.6016 51.8855 19.0951 53.1595 19.0951C54.1552 19.0951 54.9862 19.4908 55.6516 20.2812C56.3161 21.0736 56.6493 22.1138 56.6493 23.404" fill="white"/>
</g>
<mask id="mask2_447_94" style="mask-type:luminance" maskUnits="userSpaceOnUse" x="37" y="5" width="71" height="27">
<path d="M37.0846 5.70764H107.233V31.1759H37.0846" fill="white"/>
</mask>
<g mask="url(#mask2_447_94)">
<path fill-rule="evenodd" clip-rule="evenodd" d="M64.4462 23.4691C64.4462 22.6447 64.26 21.9641 63.8876 21.4294C63.4829 20.8723 62.9399 20.5933 62.2569 20.5933C61.7933 20.5933 61.3749 20.7488 60.9966 21.0551C60.6192 21.3644 60.3593 21.792 60.2596 22.2675C60.2008 22.5008 60.1714 22.6894 60.1714 22.8411V24.2547C60.1714 24.8711 60.3596 25.3922 60.7349 25.817C61.1113 26.2399 61.6013 26.4538 62.2049 26.4538C62.9105 26.4538 63.4623 26.1797 63.8543 25.6352C64.2463 25.0879 64.4452 24.3674 64.4452 23.472M66.3562 23.404C66.3562 24.8448 65.9642 25.9833 65.1851 26.8204C64.4854 27.5631 63.6171 27.9355 62.5822 27.9355C61.4621 27.9355 60.6585 27.5349 60.1714 26.7329V31.1798H58.2938V22.0565C58.2938 21.1494 58.2702 20.2209 58.2252 19.2691H59.8745L59.9794 20.6147H60.0146C60.6399 19.6016 61.5895 19.0951 62.8645 19.0951C63.8592 19.0951 64.6912 19.4908 65.3576 20.2812C66.021 21.0736 66.3562 22.1138 66.3562 23.404Z" fill="white"/>
</g>
<path fill-rule="evenodd" clip-rule="evenodd" d="M77.2156 24.4453C77.2156 25.4466 76.8657 26.2594 76.1739 26.8875C75.4114 27.5709 74.3481 27.9141 72.984 27.9141C71.7247 27.9141 70.7143 27.6691 69.9518 27.1821L70.386 25.6119C71.2092 26.1 72.1147 26.344 73.0976 26.344C73.8052 26.344 74.355 26.1855 74.748 25.8657C75.1429 25.5448 75.3409 25.119 75.3409 24.5853C75.3409 24.1089 75.1772 23.7083 74.8538 23.3826C74.5284 23.0579 73.9914 22.7546 73.2388 22.4765C71.1866 21.7085 70.1616 20.5875 70.1616 19.1107C70.1616 18.1462 70.5242 17.3578 71.2464 16.7385C71.9697 16.124 72.9291 15.8148 74.1217 15.8148C75.1899 15.8148 76.0768 16.0015 76.7824 16.3729L76.312 17.909C75.6476 17.5473 74.8989 17.3675 74.062 17.3675C73.3985 17.3675 72.8791 17.5308 72.5077 17.8565C72.196 18.1462 72.0373 18.5001 72.0373 18.9211C72.0373 19.3848 72.2176 19.7698 72.5763 20.0712C72.8899 20.3493 73.4583 20.6526 74.2785 20.9773C75.2879 21.3857 76.0278 21.8621 76.5031 22.4065C76.9804 22.9529 77.2185 23.6334 77.2185 24.4453M83.4356 20.6828H81.3678V24.7953C81.3678 25.8433 81.7324 26.3654 82.4625 26.3654C82.7986 26.3654 83.0779 26.3362 83.2955 26.2779L83.3484 27.7071C82.9799 27.8461 82.4939 27.9161 81.8912 27.9161C81.1493 27.9161 80.5711 27.6886 80.1536 27.2355C79.7361 26.7805 79.5264 26.0203 79.5264 24.9508V20.676H78.2955V19.2662H79.5274V17.7146L81.3698 17.1565V19.2662H83.4376V20.6818L83.4356 20.6828ZM90.8013 23.4798C90.8013 22.704 90.6347 22.038 90.2995 21.481C89.9056 20.8082 89.3421 20.4718 88.614 20.4718C87.8623 20.4718 87.2851 20.8082 86.8941 21.481C86.5569 22.038 86.3894 22.7157 86.3894 23.5148C86.3894 24.2926 86.556 24.9596 86.8941 25.5157C87.2998 26.1884 87.8643 26.5248 88.5993 26.5248C89.3147 26.5248 89.8762 26.1816 90.2848 25.4982C90.6278 24.9294 90.8013 24.2576 90.8013 23.4798ZM92.7466 23.4371C92.7466 24.7398 92.3742 25.8093 91.6333 26.6454C90.8562 27.5058 89.8262 27.9355 88.5405 27.9355C87.2998 27.9355 86.3129 27.5223 85.5769 26.6989C84.8439 25.8725 84.4754 24.8322 84.4754 23.578C84.4754 22.2655 84.8557 21.1893 85.6122 20.3532C86.3717 19.5171 87.3939 19.0971 88.6796 19.0971C89.9183 19.0971 90.914 19.5112 91.6666 20.3347C92.3869 21.1358 92.7446 22.1693 92.7446 23.4361M98.8461 20.9258C98.6509 20.8901 98.4527 20.8725 98.2542 20.8733C97.5937 20.8733 97.0841 21.1241 96.7254 21.6258C96.4118 22.0672 96.257 22.6253 96.257 23.298V27.7459H94.3812V21.9389C94.3812 20.9637 94.3616 20.0722 94.3264 19.2711H95.96L96.0286 20.8928H96.0806C96.2795 20.3366 96.5902 19.8875 97.0184 19.5511C97.4086 19.2573 97.8849 19.0978 98.3747 19.0971C98.5462 19.0971 98.7021 19.1087 98.8412 19.1311L98.8432 20.9278L98.8461 20.9258ZM105.445 22.6175C105.459 22.0585 105.336 21.5772 105.083 21.1689C104.756 20.6458 104.257 20.3843 103.587 20.3843C102.973 20.3843 102.474 20.639 102.094 21.1523C101.782 21.5587 101.596 22.0468 101.539 22.6155L105.445 22.6175ZM107.235 23.1055C107.235 23.4429 107.212 23.7278 107.166 23.9611H101.539C101.559 24.7972 101.833 25.4369 102.355 25.8783C102.829 26.2711 103.442 26.4684 104.195 26.4684C105.028 26.4684 105.788 26.3372 106.472 26.0698L106.766 27.3755C105.968 27.7255 105.022 27.9005 103.936 27.9005C102.627 27.9005 101.599 27.5136 100.851 26.7416C100.106 25.9687 99.7311 24.9294 99.7311 23.6286C99.7311 22.3521 100.078 21.2885 100.774 20.4397C101.503 19.5336 102.489 19.0805 103.727 19.0805C104.944 19.0805 105.865 19.5336 106.49 20.4397C106.985 21.1572 107.235 22.0468 107.235 23.1036V23.1055ZM40.9605 9.37583L40.4735 7.86889C40.4225 7.71333 40.3284 7.35361 40.1834 6.78H40.1658C40.107 7.02694 40.0207 7.38764 39.8914 7.86889L39.4141 9.37583H40.9605ZM42.6412 11.7821H41.6612L41.1222 10.0856H39.2524L38.7408 11.783H37.7824L39.6346 6.00806H40.7792L42.6412 11.7821ZM47.2766 7.61903L45.7037 11.7821H44.807L43.288 7.61903H44.2778L44.9874 9.82111C45.1069 10.1906 45.2088 10.5406 45.2853 10.874H45.3117C45.3803 10.5746 45.4823 10.2226 45.6097 9.82111L46.3084 7.61805H47.2737L47.2766 7.61903ZM50.491 9.7093C49.4679 9.7093 48.9554 9.95819 48.9554 10.5483C48.9554 10.9858 49.22 11.1997 49.5875 11.1997C50.0579 11.1997 50.492 10.84 50.492 10.3519V9.71027L50.491 9.7093ZM50.6214 11.783L50.5528 11.3037H50.5263C50.2451 11.6897 49.8354 11.8774 49.3141 11.8774C48.5693 11.8774 48.0401 11.3553 48.0401 10.6524C48.0401 9.62375 48.9279 9.09291 50.4646 9.09291V9.01514C50.4646 8.4668 50.1745 8.19264 49.6022 8.19264C49.2178 8.18578 48.8403 8.29347 48.5183 8.5018L48.3301 7.89319C48.7153 7.65305 49.1925 7.53347 49.757 7.53347C50.8409 7.53347 51.3877 8.10708 51.3877 9.25625V10.7885C51.3877 11.2104 51.4054 11.5371 51.4465 11.784H50.6184L50.6214 11.783Z" fill="white"/>
<mask id="mask3_447_94" style="mask-type:luminance" maskUnits="userSpaceOnUse" x="37" y="5" width="71" height="27">
<path d="M37.0846 5.70764H107.233V31.1759H37.0846V5.70861V5.70764Z" fill="white"/>
</mask>
<g mask="url(#mask3_447_94)">
<path fill-rule="evenodd" clip-rule="evenodd" d="M53.9229 11.7839H53.0018V7.6189H53.9229V11.7839ZM53.4447 6.93251C53.3716 6.93267 53.2992 6.91826 53.2318 6.89014C53.1644 6.86201 53.1034 6.82075 53.0524 6.76879C53.0014 6.71683 52.9615 6.65524 52.9349 6.58767C52.9084 6.5201 52.8958 6.44792 52.8979 6.37543C52.8979 6.06043 53.1458 5.82807 53.4623 5.82807C53.7779 5.82807 54.0337 6.0614 54.0249 6.37737C54.0249 6.71182 53.7867 6.93445 53.4447 6.93445V6.93251ZM56.4827 11.7839H55.5615V5.70751H56.4827V11.7839ZM60.2753 9.70917C59.2492 9.70917 58.7367 9.95806 58.7367 10.5482C58.7367 10.9857 59.0013 11.1996 59.3688 11.1996C59.8363 11.1996 60.2724 10.8399 60.2724 10.3518V9.71014L60.2753 9.70917ZM60.4027 11.7829L60.3341 11.3036H60.3086C60.0264 11.6896 59.6167 11.8772 59.0954 11.8772C58.3535 11.8772 57.8233 11.3551 57.8233 10.6522C57.8233 9.62362 58.7112 9.09278 60.2488 9.09278V9.01501C60.2488 8.46667 59.9578 8.19251 59.3864 8.19251C58.9748 8.19251 58.6171 8.29556 58.3026 8.50167L58.1164 7.89209C58.5005 7.6539 58.9788 7.53237 59.5423 7.53237C60.6261 7.53237 61.174 8.10598 61.174 9.25709V10.7883C61.174 11.2093 61.1906 11.535 61.2328 11.7829H60.4027ZM64.7206 8.26056C64.1894 8.26056 63.7033 8.72334 63.7033 9.36598V10.0951C63.7033 10.6688 64.1394 11.1403 64.7029 11.1403C65.3948 11.1403 65.8054 10.5744 65.8054 9.67514C65.8054 8.83515 65.3772 8.26056 64.7196 8.26056M64.9058 11.8772C64.3178 11.8772 63.8817 11.6283 63.5995 11.1403H63.5818L63.5279 11.7819H62.7439C62.7674 11.4494 62.7763 11.0722 62.7763 10.661V5.70557H63.6994V8.22556H63.7161C63.9885 7.76279 64.4315 7.5314 65.0391 7.5314C66.0387 7.5314 66.7384 8.38987 66.7384 9.64112C66.7384 10.9342 65.9612 11.8772 64.9029 11.8772M69.0286 11.7839H68.1074V5.70751H69.0286V11.7839ZM73.2015 9.2639C73.2015 8.62223 72.8781 8.16723 72.2881 8.16723C71.757 8.16723 71.3414 8.63001 71.2787 9.2639H73.2015ZM74.0472 9.92306H71.2787C71.2983 10.7125 71.8177 11.1578 72.5851 11.1578C72.9967 11.1578 73.371 11.0878 73.7023 10.9604L73.8463 11.6021C73.4543 11.7742 72.9937 11.8597 72.4547 11.8597C71.1582 11.8597 70.3899 11.0372 70.3899 9.75973C70.3899 8.48417 71.1758 7.52362 72.3528 7.52362C73.4083 7.52362 74.0776 8.31306 74.0776 9.50403C74.0796 9.66445 74.0707 9.81028 74.0453 9.92209L74.0472 9.92306ZM79.6724 8.20904C79.006 8.20904 78.5778 8.83417 78.5778 9.7082C78.5778 10.5638 79.0158 11.1899 79.6656 11.1899C80.3123 11.1899 80.7484 10.521 80.7484 9.68876C80.7484 8.84292 80.3212 8.20806 79.6734 8.20806M79.6361 11.8772C78.4239 11.8772 77.637 10.9692 77.637 9.73542C77.637 8.45015 78.4406 7.53237 79.7067 7.53237C80.8994 7.53237 81.7039 8.39765 81.7039 9.66931C81.7039 10.9721 80.8758 11.8792 79.6361 11.8792M86.6627 11.7849H85.7415V9.3932C85.7415 8.65723 85.4593 8.28779 84.9036 8.28779C84.3578 8.28779 83.9805 8.75931 83.9805 9.30862V11.7849H83.0593V8.80987C83.0593 8.44237 83.0495 8.04765 83.025 7.61987H83.8364L83.8795 8.26154H83.905C84.15 7.81431 84.6567 7.53237 85.2182 7.53237C86.0904 7.53237 86.6618 8.20029 86.6618 9.2882V11.7829L86.6627 11.7849ZM92.6946 8.31404H91.6803V10.3363C91.6803 10.8515 91.8587 11.1082 92.2164 11.1082C92.3791 11.1082 92.5163 11.0907 92.628 11.0654L92.6525 11.7683C92.4732 11.8364 92.2331 11.8714 91.9371 11.8714C91.209 11.8714 90.7758 11.4689 90.7758 10.4131V8.31306H90.1711V7.6189H90.7758V6.8557L91.6803 6.58057V7.6189H92.6946V8.31209V8.31404ZM97.578 11.7849H96.6548V9.41264C96.6548 8.66598 96.3726 8.28876 95.8179 8.28876C95.3396 8.28876 94.8967 8.61445 94.8967 9.27459V11.7868H93.9735V5.70751H94.8967V8.20904H94.9163C95.2044 7.75501 95.6219 7.53237 96.1609 7.53237C97.0409 7.53237 97.578 8.21973 97.578 9.30765V11.7849ZM101.444 9.26681C101.444 8.62515 101.121 8.1682 100.531 8.1682C100.001 8.1682 99.585 8.63195 99.5242 9.26681H101.445H101.444ZM102.29 9.925H99.5223C99.5399 10.7144 100.059 11.1597 100.828 11.1597C101.239 11.1597 101.614 11.0897 101.945 10.9624L102.09 11.604C101.698 11.7761 101.237 11.8617 100.698 11.8617C99.3998 11.8617 98.6324 11.0392 98.6324 9.76167C98.6324 8.48612 99.4164 7.52556 100.595 7.52556C101.654 7.52556 102.32 8.31501 102.32 9.50598C102.324 9.66639 102.315 9.81223 102.291 9.92403L102.29 9.925Z" fill="white"/>
</g>
</svg>
