<svg width="118" height="36" viewBox="0 0 118 36" fill="none" xmlns="http://www.w3.org/2000/svg">
<path d="M114.66 0.448364H2.94C1.31628 0.448364 0 1.7542 0 3.36503V32.5317C0 34.1425 1.31628 35.4484 2.94 35.4484H114.66C116.284 35.4484 117.6 34.1425 117.6 32.5317V3.36503C117.6 1.7542 116.284 0.448364 114.66 0.448364Z" fill="#151515"/>
<path d="M24.4608 14.6535L11.4003 7.49796C11.0299 7.29671 10.6888 7.2481 10.4125 7.3356L21.1092 17.9912L24.4608 14.6516" fill="url(#paint0_linear_447_73)"/>
<path fill-rule="evenodd" clip-rule="evenodd" d="M24.4775 21.3493L28.9365 18.907C29.84 18.4093 29.84 17.6004 28.9365 17.1045L24.4608 14.6545L21.1092 17.9932L24.4775 21.3493Z" fill="url(#paint1_linear_447_73)"/>
<path d="M10.4125 7.33582C10.0137 7.45832 9.75592 7.86082 9.75592 8.46359L9.75984 27.5444C9.75984 28.1433 10.0088 28.538 10.3949 28.6703L21.1092 17.9933L10.4125 7.33582Z" fill="url(#paint2_linear_447_73)"/>
<path d="M10.3948 28.6719C10.6732 28.7653 11.022 28.7206 11.4003 28.5144L24.4755 21.3492L21.1092 17.995L10.3948 28.6719Z" fill="url(#paint3_linear_447_73)"/>
<path fill-rule="evenodd" clip-rule="evenodd" d="M40.1525 6.35657C40.9757 6.35657 41.5461 6.72407 41.9165 7.10032L41.3383 7.7449C41.0404 7.4581 40.7141 7.26073 40.1623 7.26073C39.1118 7.26073 38.4062 8.06768 38.4062 9.38407C38.4062 10.7199 39.0393 11.5268 40.2251 11.5268C40.5514 11.5268 40.8768 11.4374 41.0679 11.2663V10.0024H39.9526V9.15268H42.0077V11.733C41.601 12.1092 40.9042 12.431 40.0986 12.431C38.5228 12.431 37.3282 11.3567 37.3282 9.41226C37.3282 7.49407 38.5591 6.35657 40.1506 6.35657M45.9012 9.7331C45.9012 9.03504 45.6043 8.61504 44.9977 8.61504C44.4724 8.61504 44.0196 8.99907 43.9295 9.7331H45.9012ZM44.9702 7.81782C46.1737 7.81782 46.8077 8.67629 46.8077 9.90323C46.8077 10.1016 46.7881 10.2795 46.7626 10.3874H43.9383C44.0265 11.1846 44.5361 11.6338 45.2515 11.6338C45.6298 11.6338 45.9551 11.5171 46.2805 11.311L46.6333 11.9556C46.2089 12.2327 45.6758 12.43 45.1143 12.43C43.8824 12.43 42.924 11.5793 42.924 10.1278C42.925 8.69282 43.9295 7.81782 44.9702 7.81782ZM47.822 8.73948H47.1899V7.96948L47.8779 7.92476L48.0053 6.7231H48.8736V7.92476H50.0045V8.73948H48.8736V10.8356C48.8736 11.3548 49.0715 11.6056 49.4978 11.6056C49.6517 11.6056 49.833 11.5609 49.9584 11.5084L50.1407 12.2687C49.8957 12.3493 49.588 12.43 49.2352 12.43C48.2032 12.43 47.824 11.7845 47.824 10.8356V8.73948H47.822Z" fill="#E7E7E7"/>
<mask id="mask0_447_73" style="mask-type:luminance" maskUnits="userSpaceOnUse" x="36" y="5" width="74" height="28">
<path d="M36.0522 5.98035H109.495V32.0359H36.0522V5.98035Z" fill="#E7E7E7"/>
</mask>
<g mask="url(#mask0_447_73)">
<path fill-rule="evenodd" clip-rule="evenodd" d="M52.7946 7.92479H53.8354V12.3231H52.7946V7.92479ZM52.677 6.57146C52.677 6.22146 52.9485 5.98035 53.3189 5.98035C53.6913 5.98035 53.9608 6.2234 53.9608 6.57146C53.9608 6.91174 53.6903 7.15479 53.3179 7.15479C52.9455 7.15479 52.675 6.91174 52.675 6.57146H52.677ZM55.321 8.73951H54.687V7.96951L55.3759 7.92479L55.5033 6.72312H56.3716V7.92479H57.5025V8.73951H56.3716V10.8356C56.3716 11.3548 56.5696 11.6056 56.9959 11.6056C57.1507 11.6056 57.331 11.5609 57.4584 11.5084L57.6397 12.2687C57.3947 12.3494 57.087 12.4301 56.7342 12.4301C55.7023 12.4301 55.323 11.7845 55.323 10.8356V8.73951H55.321ZM62.1105 11.5881C62.7632 11.5881 63.161 11.0048 63.161 10.1278C63.161 9.24118 62.7632 8.65979 62.1105 8.65979C61.4588 8.65979 61.0717 9.24118 61.0717 10.1278C61.0717 11.0058 61.4588 11.5881 62.1105 11.5881ZM62.1105 7.8159C63.2238 7.8159 64.2292 8.65882 64.2292 10.1278C64.2292 11.5881 63.2238 12.432 62.1105 12.432C61.006 12.432 60.0035 11.5881 60.0035 10.1278C60.0035 8.65979 61.006 7.81687 62.1105 7.81687M65.2631 7.92479H66.1226L66.1951 8.5159H66.2304C66.6293 8.1309 67.083 7.8159 67.6887 7.8159C68.6393 7.8159 69.0548 8.45271 69.0548 9.56396V12.3231H68.014V9.69812C68.014 8.97187 67.8082 8.70451 67.3182 8.70451C66.9282 8.70451 66.6753 8.89118 66.3029 9.24896V12.3231H65.2641V7.92479H65.2631Z" fill="#E7E7E7"/>
</g>
<mask id="mask1_447_73" style="mask-type:luminance" maskUnits="userSpaceOnUse" x="36" y="5" width="74" height="28">
<path d="M36.0522 5.98035H109.495V32.0359H36.0522V5.98035Z" fill="white"/>
</mask>
<g mask="url(#mask1_447_73)">
<path fill-rule="evenodd" clip-rule="evenodd" d="M89.2486 21.2755C88.5097 21.2755 87.9746 21.4797 87.6444 21.8851C87.3141 22.2896 87.1446 22.9351 87.1348 23.8198V24.0629C87.1348 25.0682 87.3043 25.7876 87.6444 26.2232C87.9825 26.6568 88.5264 26.8746 89.2761 26.8746C89.9013 26.8746 90.3933 26.6218 90.7461 26.1211C91.1018 25.6214 91.2782 24.9291 91.2782 24.0483C91.2782 23.1558 91.1018 22.4694 90.7451 21.9921C90.3923 21.5137 89.8925 21.2746 89.2476 21.2746M89.4074 27.7816C88.935 27.7816 88.5058 27.6961 88.1157 27.524C87.7237 27.3503 87.3855 27.0761 87.1357 26.7297H87.0544C87.1083 27.1477 87.1348 27.5444 87.1348 27.9187V30.8684H86.0391V20.4861H86.9309L87.0818 21.4661H87.1348C87.417 21.0733 87.7443 20.7923 88.1206 20.6164C88.525 20.4366 88.9644 20.3476 89.4074 20.3558C90.3678 20.3558 91.1087 20.6796 91.632 21.328C92.1514 21.9775 92.4121 22.8904 92.4121 24.0629C92.4121 25.2393 92.1475 26.1532 91.6183 26.8046C91.0861 27.4559 90.3501 27.7816 89.4074 27.7816ZM94.9522 27.6514H93.8546V17.478H94.9522V27.6514ZM98.7801 26.8872C99.4632 26.8872 100 26.7025 100.387 26.333C100.777 25.9607 100.972 25.4415 100.972 24.7746V24.13L99.8748 24.1747C99.0026 24.2058 98.3754 24.34 97.9912 24.5772C97.6051 24.8144 97.413 25.1858 97.413 25.6855C97.413 26.0773 97.5306 26.3758 97.7727 26.58C98.0128 26.7861 98.3479 26.8872 98.7801 26.8872ZM101.256 27.6523L101.04 26.6334H100.986C100.623 27.0836 100.264 27.3869 99.9042 27.5444C99.5465 27.7029 99.0976 27.7826 98.5616 27.7826C97.8432 27.7826 97.2807 27.5998 96.873 27.2343C96.4653 26.8687 96.2615 26.3496 96.2615 25.6719C96.2615 24.2252 97.4297 23.465 99.7699 23.3969L100.998 23.358V22.9108C100.998 22.3508 100.875 21.9347 100.63 21.6664C100.385 21.399 99.9933 21.2648 99.4573 21.2648C98.8546 21.2648 98.1735 21.4496 97.412 21.8141L97.0739 20.9829C97.4306 20.7923 97.8217 20.6426 98.246 20.5318C98.664 20.4242 99.094 20.3696 99.5259 20.3694C100.388 20.3694 101.027 20.558 101.444 20.9382C101.859 21.3173 102.068 21.924 102.068 22.7611V27.6514H101.255L101.256 27.6523ZM102.706 20.4861H103.882L105.468 24.5733C105.814 25.5066 106.031 26.1794 106.114 26.5936H106.166C106.225 26.37 106.343 25.9908 106.529 25.4512C106.71 24.9136 107.307 23.2569 108.319 20.4851H109.495L106.386 28.645C106.076 29.4519 105.717 30.0236 105.304 30.3619C104.892 30.7002 104.387 30.8675 103.789 30.8675C103.454 30.8675 103.122 30.8286 102.797 30.7557V29.8855C103.039 29.94 103.311 29.9652 103.611 29.9652C104.362 29.9652 104.899 29.5452 105.221 28.7111L105.626 27.6902L102.706 20.4832V20.4861ZM68.4589 24.9583C68.8078 24.6122 68.8382 24.1358 68.8382 23.8646C68.8382 22.7854 68.1865 21.1064 66.9301 21.1064C66.5361 21.1064 66.1118 21.3027 65.8697 21.6022C65.612 21.9162 65.5365 22.3216 65.5365 22.7105C65.5365 23.7148 66.1285 25.3802 67.4299 25.3802C67.8138 25.371 68.1805 25.2207 68.4589 24.9583ZM68.0208 27.8069C67.9003 27.7914 67.8248 27.7914 67.6739 27.7914C67.5367 27.7914 66.7184 27.8205 66.0834 28.0344C65.7502 28.1511 64.78 28.5127 64.78 29.5754C64.78 30.638 65.8266 31.4032 67.4456 31.4032C68.8999 31.4032 69.6721 30.7148 69.6721 29.7854C69.6721 29.0193 69.1723 28.6158 68.0218 27.8069H68.0208ZM69.0959 21.1521C69.4458 21.4359 70.171 22.0368 70.171 23.1743C70.171 24.2846 69.534 24.8096 68.8999 25.3034C68.7039 25.4959 68.4746 25.7098 68.4746 26.0394C68.4746 26.368 68.7029 26.5479 68.8695 26.683L69.4154 27.1011C70.0818 27.6582 70.6864 28.1666 70.6864 29.2011C70.6864 30.6108 69.3066 32.0351 66.7037 32.0351C64.5085 32.0351 63.4501 30.9987 63.4501 29.8904C63.4501 29.3498 63.7196 28.5876 64.6163 28.0607C65.5532 27.4909 66.8262 27.4171 67.5073 27.3704C67.2937 27.1021 67.0526 26.8162 67.0526 26.3544C67.0526 26.0968 67.1281 25.9461 67.2035 25.7662C67.0369 25.7818 66.8703 25.7954 66.7184 25.7954C65.1151 25.7954 64.2067 24.6112 64.2067 23.4426C64.2067 22.7543 64.5242 21.9891 65.1749 21.435C66.0373 20.7311 67.0663 20.6105 67.8866 20.6105H71.0059L70.0357 21.1501H69.0969L69.0959 21.1521ZM61.4519 26.3554C61.8145 25.8771 61.9056 25.2762 61.9056 24.6929C61.9056 23.3765 61.2735 20.8623 59.3968 20.8623C58.899 20.8623 58.4002 21.0568 58.0376 21.3718C57.4496 21.8968 57.3418 22.555 57.3418 23.1996C57.3418 24.6802 58.0827 27.1196 59.9123 27.1196C60.5003 27.1196 61.1079 26.8347 61.4529 26.3564M59.5644 27.5697C57.1615 27.5697 55.8767 25.7127 55.8767 24.0357C55.8767 22.0766 57.4937 20.3996 59.7918 20.3996C62.0134 20.3996 63.405 22.1204 63.405 23.9326C63.405 25.6982 62.0291 27.5687 59.5634 27.5687M53.2591 26.3554C53.6217 25.8771 53.7119 25.2762 53.7119 24.6929C53.7119 23.3765 53.0768 20.8623 51.2031 20.8623C50.7033 20.8623 50.2035 21.0568 49.8428 21.3718C49.2509 21.8968 49.147 22.555 49.147 23.1996C49.147 24.6802 49.8869 27.1196 51.7166 27.1196C52.3065 27.1196 52.9102 26.8347 53.2591 26.3564M51.3697 27.5697C48.9647 27.5697 47.679 25.7127 47.679 24.0357C47.679 22.0766 49.2979 20.3996 51.596 20.3996C53.8187 20.3996 55.2093 22.1204 55.2093 23.9326C55.2093 25.6982 53.8344 27.5687 51.3706 27.5687M46.5236 27.3334L44.3519 27.8293C43.4669 27.9654 42.6761 28.084 41.8431 28.084C37.6487 28.084 36.0513 25.0312 36.0513 22.6396C36.0513 19.72 38.3151 17.0123 42.1919 17.0123C42.9775 17.0137 43.7593 17.1196 44.5165 17.3273C45.6572 17.6443 46.1894 18.0351 46.5226 18.2607L45.2613 19.4487L44.7302 19.5693L45.1104 18.9665C44.593 18.4707 43.6502 17.5529 41.8568 17.5529C39.4558 17.5529 37.6477 19.3612 37.6477 21.993C37.6477 24.8202 39.7125 27.4841 43.0259 27.4841C44.0001 27.4841 44.5008 27.2868 44.9565 27.1069V24.6861L42.6633 24.8057L43.8785 24.1562H47.1008L46.7049 24.5354C46.5971 24.6248 46.5824 24.654 46.553 24.7755C46.5373 24.9097 46.5216 25.3472 46.5216 25.495V27.3325L46.5236 27.3334Z" fill="white"/>
</g>
<mask id="mask2_447_73" style="mask-type:luminance" maskUnits="userSpaceOnUse" x="36" y="5" width="74" height="28">
<path d="M36.0522 5.98035H109.495V32.0359H36.0522V5.98035Z" fill="white"/>
</mask>
<g mask="url(#mask2_447_73)">
<path fill-rule="evenodd" clip-rule="evenodd" d="M73.8998 26.8997C73.3981 26.854 73.2922 26.7655 73.2922 26.1763V17.6616L73.302 17.5644C73.3628 17.0374 73.5137 16.948 73.988 16.6758H71.8124L70.6717 17.2202H71.833V26.5069C71.833 26.8083 71.7742 26.854 71.4234 27.3041H74.1135L74.6769 26.9765C74.4182 26.9434 74.1595 26.9298 73.9008 26.8987M78.6656 22.583C78.9527 22.4799 79.1026 22.3886 79.1026 22.1815C79.1026 21.5845 78.4235 20.8962 77.6081 20.8962C77.0035 20.8962 75.8735 21.3599 75.8735 22.9738C75.8735 23.2266 75.9029 23.4959 75.9196 23.7643L78.6636 22.582L78.6656 22.583ZM80.0865 27.0377C79.9199 27.1252 79.7534 27.2322 79.5887 27.3051C79.0889 27.5316 78.5754 27.5899 78.1217 27.5899C77.6415 27.5899 76.8849 27.5588 76.1156 27.0066C75.0435 26.2599 74.577 24.9747 74.577 23.8537C74.577 21.5369 76.4802 20.4023 78.0335 20.4023C78.5764 20.4023 79.135 20.5384 79.5897 20.8204C80.3423 21.3133 80.5383 21.9549 80.6442 22.3001L77.0985 23.7195L75.9353 23.8099C76.3126 25.7058 77.6111 26.8122 79.0448 26.8122C79.8151 26.8122 80.3737 26.5429 80.8872 26.2901L80.0875 27.0387L80.0865 27.0377ZM81.5419 20.5054V21.4912H81.4203V20.5054H81.0911V20.4033H81.8721V20.5054H81.5419ZM82.8992 21.4912V20.4956H82.8962L82.5875 21.4912H82.4925L82.1828 20.4966H82.1798V21.4922H82.0681V20.4033H82.2572L82.5375 21.2841H82.5395L82.8158 20.4043H83.006V21.4931H82.8982L82.8992 21.4912Z" fill="white"/>
</g>
<defs>
<linearGradient id="paint0_linear_447_73" x1="280.351" y1="-368.788" x2="712.204" y2="1088.42" gradientUnits="userSpaceOnUse">
<stop stop-color="#19A3B4"/>
<stop offset="0.34817" stop-color="#5BC3AF"/>
<stop offset="0.92234" stop-color="#C9F7A6"/>
<stop offset="1" stop-color="#D7FEA5"/>
</linearGradient>
<linearGradient id="paint1_linear_447_73" x1="-103.896" y1="-750.7" x2="393.145" y2="860.496" gradientUnits="userSpaceOnUse">
<stop stop-color="#FC227C"/>
<stop offset="1" stop-color="#FEEB7B"/>
</linearGradient>
<linearGradient id="paint2_linear_447_73" x1="329.363" y1="-308.713" x2="1058.2" y2="1582.63" gradientUnits="userSpaceOnUse">
<stop stop-color="#0E4DA0"/>
<stop offset="1" stop-color="#6BFED4"/>
</linearGradient>
<linearGradient id="paint3_linear_447_73" x1="1872.49" y1="194.567" x2="517.062" y2="1742.62" gradientUnits="userSpaceOnUse">
<stop stop-color="#FC472E"/>
<stop offset="0.00332" stop-color="#FC472E"/>
<stop offset="1" stop-color="#893CD8"/>
</linearGradient>
</defs>
</svg>
